<?xml version="1.0" encoding="UTF-8" standalone="no"?>
<!-- Created with Inkscape (http://www.inkscape.org/) -->

<svg
   xmlns:dc="http://purl.org/dc/elements/1.1/"
   xmlns:cc="http://creativecommons.org/ns#"
   xmlns:rdf="http://www.w3.org/1999/02/22-rdf-syntax-ns#"
   xmlns:svg="http://www.w3.org/2000/svg"
   xmlns="http://www.w3.org/2000/svg"
   xmlns:xlink="http://www.w3.org/1999/xlink"
   xmlns:sodipodi="http://sodipodi.sourceforge.net/DTD/sodipodi-0.dtd"
   xmlns:inkscape="http://www.inkscape.org/namespaces/inkscape"
   width="64"
   height="64"
   id="svg7408"
   version="1.1"
   inkscape:version="0.48.2 r9819"
   sodipodi:docname="drawing.svg">
  <defs
     id="defs7410">
    <linearGradient
       id="linearGradient8290">
      <stop
         style="stop-color:#803300;stop-opacity:1;"
         offset="0"
         id="stop8292" />
      <stop
         style="stop-color:#803300;stop-opacity:0.46153846;"
         offset="1"
         id="stop8294" />
    </linearGradient>
    <linearGradient
       inkscape:collect="always"
       xlink:href="#linearGradient8290"
       id="linearGradient8296"
       x1="51.5"
       y1="16.875"
       x2="59"
       y2="43.625"
       gradientUnits="userSpaceOnUse" />
    <linearGradient
       inkscape:collect="always"
       xlink:href="#linearGradient8290"
       id="linearGradient8306"
       gradientUnits="userSpaceOnUse"
       x1="51.5"
       y1="16.875"
       x2="59"
       y2="43.625" />
    <linearGradient
       inkscape:collect="always"
       xlink:href="#linearGradient8290"
       id="linearGradient8311"
       gradientUnits="userSpaceOnUse"
       x1="51.5"
       y1="16.875"
       x2="59"
       y2="43.625"
       gradientTransform="translate(0,988.36218)" />
  </defs>
  <sodipodi:namedview
     id="base"
     pagecolor="#ffffff"
     bordercolor="#666666"
     borderopacity="1.0"
     inkscape:pageopacity="0.0"
     inkscape:pageshadow="2"
     inkscape:zoom="1"
     inkscape:cx="46.274408"
     inkscape:cy="31.215686"
     inkscape:document-units="px"
     inkscape:current-layer="layer1"
     showgrid="false"
     inkscape:window-width="1241"
     inkscape:window-height="933"
     inkscape:window-x="96"
     inkscape:window-y="6"
     inkscape:window-maximized="0" />
  <metadata
     id="metadata7413">
    <rdf:RDF>
      <cc:Work
         rdf:about="">
        <dc:format>image/svg+xml</dc:format>
        <dc:type
           rdf:resource="http://purl.org/dc/dcmitype/StillImage" />
        <dc:title></dc:title>
      </cc:Work>
    </rdf:RDF>
  </metadata>
  <g
     inkscape:label="Layer 1"
     inkscape:groupmode="layer"
     id="layer1"
     transform="translate(0,-988.36218)">
    <path
       style="fill:#803300;stroke:#000000;stroke-width:1px;stroke-linecap:butt;stroke-linejoin:round;stroke-opacity:1"
       d="m 15,1019.6122 1.25,3.75 0,12.25 -3,3 3.25,0 1.75,-3.5 1,-16 z"
       id="path7497"
       inkscape:connector-curvature="0"
       sodipodi:nodetypes="cccccccc" />
    <path
       style="fill:#803300;stroke:#000000;stroke-width:1px;stroke-linecap:butt;stroke-linejoin:round;stroke-opacity:1"
       d="m 50.75,1017.1122 0,5.5 4,5 0.5,10 -1.75,3.25 -2.25,0 1.75,-3.25 0,-6.5 -6,-6.25 -1.75,-6.75 z"
       id="path7499"
       inkscape:connector-curvature="0" />
    <path
       style="fill:url(#linearGradient8311);fill-opacity:1;stroke:#000000;stroke-width:1px;stroke-linecap:butt;stroke-linejoin:round;stroke-opacity:1"
       d="m 48.25,1005.1122 4.75,-0.75 4.5,3.75 4,21.75 -2,3.25 -6.25,-2 1.25,-21 z"
       id="path7520"
       inkscape:connector-curvature="0" />
    <path
       style="fill:#803300;stroke:#000000;stroke-width:1px;stroke-linecap:butt;stroke-linejoin:round;stroke-opacity:1"
       d="m 18,1001.8622 -11.75,12.25 -3.5,7.75 0,2.25 6.875,4.4062 -8.125,-5.4062 0.25,15.25 3.75,0.25 4.75,-9.75 -0.5,-0.25 0,-0.031 -0.5,-2.4687 2.75,-8 6,2.25 4.25,16.5 -1.5,3.75 2.75,0 1,-3.5 -2.75,-9 0.25,-9.25 2.75,2.5 11.75,0.25 5.5,-4 3.5,11.75 -4,11.75 2.25,0 4.75,-13.5 0,-4.25 4.5,-5.75 -0.5,-9.75 -7,-4.25 -6.25,1.5 -15,0.25 z"
       id="path7491"
       inkscape:connector-curvature="0"
       sodipodi:nodetypes="cccccccccccccccccccccccccccccccccc" />
    <path
       sodipodi:type="arc"
       style="fill:#e6e6e6;fill-opacity:1;fill-rule:nonzero;stroke:#000000;stroke-width:1;stroke-linecap:round;stroke-linejoin:round;stroke-miterlimit:4;stroke-opacity:1;stroke-dasharray:none;stroke-dashoffset:0"
       id="path8304"
       sodipodi:cx="3.75"
       sodipodi:cy="41.5"
       sodipodi:rx="1.25"
       sodipodi:ry="1.25"
       d="m 5,41.5 a 1.25,1.25 0 1 1 -2.5,0 1.25,1.25 0 1 1 2.5,0 z"
       transform="translate(0,988.36218)" />
  </g>
</svg>
